<?xml version="1.0" encoding="UTF-8"?>
<svg id="Layer_1" data-name="Layer 1" xmlns="http://www.w3.org/2000/svg" viewBox="0 0 195 195">
  <defs>
    <style>
      .cls-1 {
        fill: #441314;
      }

      .cls-2 {
        fill: none;
        stroke: #f28f4c;
        stroke-linecap: round;
        stroke-linejoin: round;
        stroke-width: 10px;
      }

      .cls-3 {
        fill: #f4ae6d;
      }
    </style>
  </defs>
  <path class="cls-3" d="M195,14.81c0-8.18-6.63-14.81-14.81-14.81H14.81C6.63,0,0,6.63,0,14.81V180.19c0,8.18,6.63,14.81,14.81,14.81H122.94c2.55,0,4.99-1.01,6.79-2.81l62.46-62.46c1.8-1.8,2.81-4.24,2.81-6.79V14.81Z"/>
  <path class="cls-1" d="M138,126.53h57l-34.23,34.23-34.23,34.23v-57c0-6.33,5.13-11.47,11.47-11.47Z"/>
  <line class="cls-2" x1="169.9" y1="43.28" x2="22.6" y2="43.28"/>
  <line class="cls-2" x1="170.94" y1="91.28" x2="23.63" y2="91.28"/>
  <line class="cls-2" x1="104.63" y1="139.28" x2="23.63" y2="139.28"/>
</svg>